<?xml version="1.0" encoding="UTF-8"?>
<svg xmlns="http://www.w3.org/2000/svg" xmlns:xlink="http://www.w3.org/1999/xlink" width="3000" height="2250" viewBox="0 0 3000 2250">

<path fill-rule="nonzero" fill="rgb(0%, 50.193787%, 50.193787%)" fill-opacity="1" d="M 1288.539062 1226.390625 L 1320.03125 1160.929688 L 1435.210938 1141.871094 C 1461.671875 1176.171875 1541.308594 1168.070312 1572.761719 1141.871094 L 1687.941406 1160.929688 L 1719.429688 1226.390625 L 1288.539062 1226.390625 "/>
<path fill-rule="nonzero" fill="rgb(100%, 60.351562%, 45.483398%)" fill-opacity="1" d="M 1552.871094 1083.859375 L 1455.089844 1083.859375 L 1435.210938 1141.871094 C 1439.308594 1187.679688 1568.941406 1196.101562 1572.761719 1141.871094 L 1552.871094 1083.859375 "/>
<path fill-rule="nonzero" fill="rgb(10.205078%, 10.205078%, 10.205078%)" fill-opacity="1" d="M 1423.28125 1753.394531 L 1569.769531 1753.394531 L 1569.769531 1819.019531 L 1423.28125 1819.019531 L 1423.28125 1753.394531 "/>
<path fill-rule="nonzero" fill="rgb(10.205078%, 10.205078%, 10.205078%)" fill-opacity="1" d="M 974.480469 1189.929688 L 2018.570312 1189.929688 L 2018.570312 1766.660156 L 974.480469 1766.660156 L 974.480469 1189.929688 "/>
<path fill-rule="nonzero" fill="rgb(62.693787%, 35.301208%, 17.259216%)" fill-opacity="1" d="M 844.964844 1805.808594 L 2148.089844 1805.808594 L 2148.089844 2070.652344 L 844.964844 2070.652344 L 844.964844 1805.808594 "/>
<path fill-rule="nonzero" fill="rgb(100%, 60.351562%, 45.483398%)" fill-opacity="1" d="M 1634.488281 970.75 C 1634.488281 1012.179688 1620.738281 1051.910156 1596.269531 1081.199219 C 1571.789062 1110.488281 1538.601562 1126.949219 1503.980469 1126.949219 C 1469.371094 1126.949219 1436.171875 1110.488281 1411.699219 1081.199219 C 1387.21875 1051.910156 1373.46875 1012.179688 1373.46875 970.75 C 1373.46875 929.328125 1387.21875 889.601562 1411.699219 860.300781 C 1436.171875 831.011719 1469.371094 814.550781 1503.980469 814.550781 C 1538.601562 814.550781 1571.789062 831.011719 1596.269531 860.300781 C 1620.738281 889.601562 1634.488281 929.328125 1634.488281 970.75 "/>
<path fill-rule="nonzero" fill="rgb(19.993591%, 19.993591%, 19.993591%)" fill-opacity="1" d="M 1503.980469 814.550781 C 1450.109375 814.578125 1401.789062 854.210938 1382.328125 914.328125 C 1413.609375 903.191406 1440.410156 884.71875 1470.011719 866.761719 C 1465.96875 875.839844 1466.679688 883.410156 1469.179688 894.929688 C 1515.558594 868.429688 1587.730469 879.570312 1627.46875 920.230469 C 1609.421875 857.03125 1559.789062 814.558594 1503.980469 814.550781 "/>
<path fill-rule="nonzero" fill="rgb(28.24707%, 21.556091%, 21.556091%)" fill-opacity="1" d="M 1443.21875 928.25 C 1431.449219 928.578125 1419.210938 932.789062 1410.660156 938.890625 C 1410.011719 939.359375 1409.578125 940.058594 1409.449219 940.839844 C 1409.320312 941.628906 1409.5 942.429688 1409.960938 943.078125 C 1410.429688 943.730469 1411.128906 944.160156 1411.910156 944.289062 C 1412.699219 944.429688 1413.5 944.238281 1414.148438 943.78125 C 1421.511719 938.519531 1432.980469 934.539062 1443.390625 934.25 C 1453.800781 933.949219 1462.699219 937.039062 1466.921875 945.199219 C 1467.679688 946.671875 1469.488281 947.238281 1470.960938 946.480469 C 1472.429688 945.71875 1473.011719 943.910156 1472.25 942.441406 C 1466.71875 931.75 1454.980469 927.910156 1443.21875 928.25 "/>
<path fill-rule="nonzero" fill="rgb(28.24707%, 21.556091%, 21.556091%)" fill-opacity="1" d="M 1456.351562 974.359375 C 1456.351562 983.738281 1450.710938 991.351562 1443.761719 991.351562 C 1436.800781 991.351562 1431.160156 983.738281 1431.160156 974.359375 C 1431.160156 964.96875 1436.800781 957.359375 1443.761719 957.359375 C 1450.710938 957.359375 1456.351562 964.96875 1456.351562 974.359375 "/>
<path fill-rule="nonzero" fill="rgb(28.24707%, 21.556091%, 21.556091%)" fill-opacity="1" d="M 1556.550781 928.25 C 1544.78125 927.910156 1533.050781 931.75 1527.511719 942.441406 C 1526.75 943.910156 1527.328125 945.71875 1528.800781 946.480469 C 1529.511719 946.851562 1530.328125 946.921875 1531.089844 946.679688 C 1531.851562 946.441406 1532.480469 945.910156 1532.851562 945.199219 C 1537.070312 937.039062 1545.96875 933.949219 1556.378906 934.25 C 1566.78125 934.539062 1578.25 938.519531 1585.609375 943.78125 C 1586.261719 944.238281 1587.070312 944.429688 1587.851562 944.289062 C 1588.640625 944.160156 1589.339844 943.730469 1589.800781 943.078125 C 1590.261719 942.429688 1590.449219 941.628906 1590.320312 940.839844 C 1590.191406 940.058594 1589.75 939.359375 1589.101562 938.890625 C 1580.550781 932.789062 1568.308594 928.578125 1556.550781 928.25 "/>
<path fill-rule="nonzero" fill="rgb(28.24707%, 21.556091%, 21.556091%)" fill-opacity="1" d="M 1574.128906 974.359375 C 1574.128906 983.738281 1568.488281 991.351562 1561.53125 991.351562 C 1554.570312 991.351562 1548.929688 983.738281 1548.929688 974.359375 C 1548.929688 964.96875 1554.570312 957.359375 1561.53125 957.359375 C 1568.488281 957.359375 1574.128906 964.96875 1574.128906 974.359375 "/>
<path fill-rule="nonzero" fill="rgb(33.325195%, 0%, 0%)" fill-opacity="1" d="M 1547.488281 1062.320312 C 1547.488281 1070.101562 1528.011719 1076.398438 1503.980469 1076.398438 C 1479.960938 1076.398438 1460.480469 1070.101562 1460.480469 1062.320312 C 1460.480469 1054.539062 1479.960938 1048.230469 1503.980469 1048.230469 C 1528.011719 1048.230469 1547.488281 1054.539062 1547.488281 1062.320312 "/>
<path fill-rule="nonzero" fill="rgb(90.234375%, 90.234375%, 90.234375%)" fill-opacity="1" d="M 1503.980469 1048.230469 C 1482.921875 1048.230469 1464.898438 1053.121094 1461.179688 1059.828125 L 1546.78125 1059.828125 C 1543.070312 1053.121094 1525.039062 1048.230469 1503.980469 1048.230469 "/>
<path fill-rule="nonzero" fill="rgb(68.554688%, 86.71875%, 91.40625%)" fill-opacity="1" d="M 1104.578125 800.921875 L 1215.53125 800.921875 L 1215.53125 863.441406 Z M 1104.578125 800.921875 "/>
<path fill-rule="nonzero" fill="rgb(68.554688%, 86.71875%, 91.40625%)" fill-opacity="1" d="M 817.097656 560.679688 L 1215.53125 560.679688 L 1215.53125 800.921875 L 817.097656 800.921875 L 817.097656 560.679688 "/>
<path fill-rule="nonzero" fill="rgb(0%, 60.351562%, 65.818787%)" fill-opacity="1" d="M 974.773438 695.5 C 974.484375 701.828125 972.777344 707.421875 969.65625 712.289062 C 966.535156 717.121094 962.144531 720.859375 956.484375 723.53125 C 950.867188 726.191406 944.4375 727.519531 937.199219 727.519531 C 925.257812 727.519531 915.851562 723.628906 908.984375 715.851562 C 902.121094 708.070312 898.6875 697.078125 898.6875 682.890625 L 898.6875 678.398438 C 898.6875 669.488281 900.226562 661.710938 903.304688 655.050781 C 906.425781 648.351562 910.898438 643.191406 916.726562 639.570312 C 922.550781 635.910156 929.292969 634.078125 936.949219 634.078125 C 947.976562 634.078125 956.839844 636.988281 963.539062 642.820312 C 970.238281 648.601562 974.046875 656.589844 974.960938 666.789062 L 953.117188 666.789062 C 952.949219 661.25 951.554688 657.28125 948.933594 654.871094 C 946.3125 652.449219 942.316406 651.25 936.949219 651.25 C 931.496094 651.25 927.503906 653.289062 924.964844 657.359375 C 922.425781 661.441406 921.09375 667.949219 920.96875 676.898438 L 920.96875 683.328125 C 920.96875 693.03125 922.175781 699.949219 924.589844 704.121094 C 927.046875 708.28125 931.246094 710.359375 937.199219 710.359375 C 942.234375 710.359375 946.082031 709.171875 948.746094 706.800781 C 951.410156 704.429688 952.824219 700.660156 952.992188 695.5 L 974.773438 695.5 "/>
<path fill-rule="nonzero" fill="rgb(0%, 60.351562%, 65.818787%)" fill-opacity="1" d="M 1032.011719 702.121094 C 1032.011719 698.910156 1030.871094 696.421875 1028.578125 694.628906 C 1026.328125 692.839844 1022.359375 690.988281 1016.660156 689.070312 C 1010.960938 687.160156 1006.300781 685.308594 1002.679688 683.519531 C 990.898438 677.730469 985.011719 669.78125 985.011719 659.671875 C 985.011719 654.640625 986.46875 650.210938 989.382812 646.378906 C 992.335938 642.511719 996.496094 639.511719 1001.859375 637.390625 C 1007.230469 635.230469 1013.269531 634.140625 1019.96875 634.140625 C 1026.5 634.140625 1032.351562 635.308594 1037.511719 637.640625 C 1042.710938 639.96875 1046.738281 643.300781 1049.609375 647.628906 C 1052.488281 651.910156 1053.921875 656.820312 1053.921875 662.359375 L 1032.078125 662.359375 C 1032.078125 658.648438 1030.929688 655.78125 1028.640625 653.738281 C 1026.390625 651.699219 1023.339844 650.679688 1019.46875 650.679688 C 1015.558594 650.679688 1012.449219 651.558594 1010.171875 653.308594 C 1007.921875 655.011719 1006.800781 657.199219 1006.800781 659.859375 C 1006.800781 662.191406 1008.039062 664.308594 1010.539062 666.230469 C 1013.039062 668.101562 1017.429688 670.058594 1023.710938 672.089844 C 1029.988281 674.089844 1035.148438 676.261719 1039.191406 678.589844 C 1049.011719 684.25 1053.921875 692.050781 1053.921875 701.988281 C 1053.921875 709.941406 1050.929688 716.179688 1044.929688 720.71875 C 1038.941406 725.25 1030.71875 727.519531 1020.28125 727.519531 C 1012.910156 727.519531 1006.230469 726.210938 1000.238281 723.589844 C 994.289062 720.929688 989.796875 717.308594 986.757812 712.730469 C 983.761719 708.109375 982.265625 702.800781 982.265625 696.808594 L 1004.238281 696.808594 C 1004.238281 701.679688 1005.480469 705.28125 1007.980469 707.609375 C 1010.519531 709.898438 1014.621094 711.039062 1020.28125 711.039062 C 1023.898438 711.039062 1026.75 710.269531 1028.828125 708.730469 C 1030.949219 707.148438 1032.011719 704.949219 1032.011719 702.121094 "/>
<path fill-rule="nonzero" fill="rgb(0%, 60.351562%, 65.818787%)" fill-opacity="1" d="M 1112.03125 702.121094 C 1112.03125 698.910156 1110.890625 696.421875 1108.601562 694.628906 C 1106.351562 692.839844 1102.378906 690.988281 1096.679688 689.070312 C 1090.980469 687.160156 1086.320312 685.308594 1082.699219 683.519531 C 1070.921875 677.730469 1065.03125 669.78125 1065.03125 659.671875 C 1065.03125 654.640625 1066.488281 650.210938 1069.398438 646.378906 C 1072.359375 642.511719 1076.519531 639.511719 1081.890625 637.390625 C 1087.25 635.230469 1093.289062 634.140625 1099.988281 634.140625 C 1106.519531 634.140625 1112.371094 635.308594 1117.53125 637.640625 C 1122.730469 639.96875 1126.761719 643.300781 1129.640625 647.628906 C 1132.511719 651.910156 1133.941406 656.820312 1133.941406 662.359375 L 1112.101562 662.359375 C 1112.101562 658.648438 1110.949219 655.78125 1108.660156 653.738281 C 1106.421875 651.699219 1103.359375 650.679688 1099.488281 650.679688 C 1095.578125 650.679688 1092.480469 651.558594 1090.191406 653.308594 C 1087.941406 655.011719 1086.820312 657.199219 1086.820312 659.859375 C 1086.820312 662.191406 1088.058594 664.308594 1090.558594 666.230469 C 1093.058594 668.101562 1097.449219 670.058594 1103.730469 672.089844 C 1110.011719 674.089844 1115.179688 676.261719 1119.210938 678.589844 C 1129.03125 684.25 1133.941406 692.050781 1133.941406 701.988281 C 1133.941406 709.941406 1130.949219 716.179688 1124.949219 720.71875 C 1118.960938 725.25 1110.738281 727.519531 1100.300781 727.519531 C 1092.929688 727.519531 1086.25 726.210938 1080.261719 723.589844 C 1074.308594 720.929688 1069.820312 717.308594 1066.78125 712.730469 C 1063.78125 708.109375 1062.289062 702.800781 1062.289062 696.808594 L 1084.261719 696.808594 C 1084.261719 701.679688 1085.511719 705.28125 1088 707.609375 C 1090.539062 709.898438 1094.640625 711.039062 1100.300781 711.039062 C 1103.921875 711.039062 1106.769531 710.269531 1108.851562 708.730469 C 1110.96875 707.148438 1112.03125 704.949219 1112.03125 702.121094 "/>
<path fill-rule="nonzero" fill="rgb(68.554688%, 86.71875%, 91.40625%)" fill-opacity="1" d="M 1882.640625 800.921875 L 1771.691406 800.921875 L 1771.691406 863.441406 Z M 1882.640625 800.921875 "/>
<path fill-rule="nonzero" fill="rgb(68.554688%, 86.71875%, 91.40625%)" fill-opacity="1" d="M 2170.128906 560.679688 L 1771.691406 560.679688 L 1771.691406 800.921875 L 2170.128906 800.921875 L 2170.128906 560.679688 "/>
<path fill-rule="nonzero" fill="rgb(0%, 60.351562%, 65.818787%)" fill-opacity="1" d="M 1936.960938 632.289062 L 1960.28125 632.289062 L 1960.28125 698.859375 C 1960.28125 705.039062 1958.839844 710.539062 1955.949219 715.390625 C 1953.109375 720.230469 1949.109375 723.980469 1943.949219 726.648438 C 1938.851562 729.308594 1933.140625 730.648438 1926.828125 730.648438 C 1916.261719 730.648438 1908.039062 727.980469 1902.171875 722.648438 C 1896.308594 717.320312 1893.378906 709.769531 1893.378906 699.988281 L 1916.828125 699.988281 C 1916.828125 704.441406 1917.589844 707.660156 1919.101562 709.660156 C 1920.648438 711.648438 1923.230469 712.648438 1926.828125 712.648438 C 1930.070312 712.648438 1932.558594 711.449219 1934.289062 709.058594 C 1936.070312 706.609375 1936.960938 703.210938 1936.960938 698.859375 L 1936.960938 632.289062 "/>
<path fill-rule="nonzero" fill="rgb(0%, 60.351562%, 65.818787%)" fill-opacity="1" d="M 2025.050781 703.519531 C 2025.050781 700.101562 2023.828125 697.441406 2021.390625 695.53125 C 2018.988281 693.621094 2014.738281 691.640625 2008.660156 689.601562 C 2002.570312 687.550781 1997.601562 685.578125 1993.730469 683.671875 C 1981.160156 677.488281 1974.871094 669.011719 1974.871094 658.210938 C 1974.871094 652.839844 1976.429688 648.109375 1979.539062 644.019531 C 1982.691406 639.890625 1987.128906 636.691406 1992.871094 634.421875 C 1998.601562 632.109375 2005.039062 630.960938 2012.191406 630.960938 C 2019.160156 630.960938 2025.410156 632.199219 2030.910156 634.691406 C 2036.46875 637.179688 2040.78125 640.730469 2043.839844 645.351562 C 2046.910156 649.929688 2048.441406 655.171875 2048.441406 661.078125 L 2025.121094 661.078125 C 2025.121094 657.121094 2023.898438 654.058594 2021.449219 651.878906 C 2019.050781 649.710938 2015.789062 648.621094 2011.660156 648.621094 C 2007.480469 648.621094 2004.171875 649.550781 2001.730469 651.421875 C 1999.328125 653.238281 1998.128906 655.570312 1998.128906 658.410156 C 1998.128906 660.898438 1999.460938 663.171875 2002.128906 665.210938 C 2004.789062 667.210938 2009.480469 669.300781 2016.191406 671.46875 C 2022.898438 673.609375 2028.398438 675.921875 2032.710938 678.398438 C 2043.199219 684.441406 2048.441406 692.769531 2048.441406 703.390625 C 2048.441406 711.878906 2045.238281 718.539062 2038.839844 723.378906 C 2032.449219 728.21875 2023.671875 730.648438 2012.519531 730.648438 C 2004.660156 730.648438 1997.53125 729.25 1991.128906 726.449219 C 1984.78125 723.601562 1979.980469 719.738281 1976.738281 714.851562 C 1973.539062 709.921875 1971.941406 704.261719 1971.941406 697.859375 L 1995.398438 697.859375 C 1995.398438 703.058594 1996.730469 706.898438 1999.398438 709.390625 C 2002.109375 711.828125 2006.480469 713.050781 2012.519531 713.050781 C 2016.390625 713.050781 2019.429688 712.230469 2021.648438 710.589844 C 2023.921875 708.898438 2025.050781 706.550781 2025.050781 703.519531 "/>
<path fill-rule="nonzero" fill="rgb(68.554688%, 86.71875%, 91.40625%)" fill-opacity="1" d="M 1557.230469 497.78125 L 1430 497.78125 L 1493.609375 607.960938 Z M 1557.230469 497.78125 "/>
<path fill-rule="nonzero" fill="rgb(68.554688%, 86.71875%, 91.40625%)" fill-opacity="1" d="M 1692.828125 279.429688 L 1294.390625 279.429688 L 1294.390625 519.671875 L 1692.828125 519.671875 L 1692.828125 279.429688 "/>
<path fill-rule="nonzero" fill="rgb(0%, 60.351562%, 65.818787%)" fill-opacity="1" d="M 1411.070312 439.289062 L 1392.019531 439.289062 L 1392.019531 406.101562 L 1363.800781 406.101562 L 1363.800781 439.289062 L 1344.640625 439.289062 L 1344.640625 359.808594 L 1363.800781 359.808594 L 1363.800781 391.359375 L 1392.019531 391.359375 L 1392.019531 359.808594 L 1411.070312 359.808594 L 1411.070312 439.289062 "/>
<path fill-rule="nonzero" fill="rgb(0%, 60.351562%, 65.818787%)" fill-opacity="1" d="M 1484 374.601562 L 1460.148438 374.601562 L 1460.148438 439.289062 L 1440.988281 439.289062 L 1440.988281 374.601562 L 1417.570312 374.601562 L 1417.570312 359.808594 L 1484 359.808594 L 1484 374.601562 "/>
<path fill-rule="nonzero" fill="rgb(0%, 60.351562%, 65.818787%)" fill-opacity="1" d="M 1517.25 359.808594 L 1534.988281 415.109375 L 1552.679688 359.808594 L 1577.898438 359.808594 L 1577.898438 439.289062 L 1558.679688 439.289062 L 1558.679688 420.730469 L 1560.539062 382.738281 L 1541.320312 439.289062 L 1528.660156 439.289062 L 1509.390625 382.679688 L 1511.238281 420.730469 L 1511.238281 439.289062 L 1492.078125 439.289062 L 1492.078125 359.808594 L 1517.25 359.808594 "/>
<path fill-rule="nonzero" fill="rgb(0%, 60.351562%, 65.818787%)" fill-opacity="1" d="M 1609.230469 424.550781 L 1642.589844 424.550781 L 1642.589844 439.289062 L 1590.070312 439.289062 L 1590.070312 359.808594 L 1609.230469 359.808594 L 1609.230469 424.550781 "/>
</svg>
